<svg width="33" height="32" viewBox="0 0 33 32" fill="none" xmlns="http://www.w3.org/2000/svg">
<circle cx="16.3333" cy="16" r="16" fill="#0D28A6"/>
<path d="M25.5 8.49996C24.7019 9.06285 23.8184 9.49338 22.8833 9.77496C22.3814 9.19788 21.7144 8.78887 20.9725 8.60323C20.2306 8.41759 19.4495 8.46429 18.735 8.737C18.0205 9.00972 17.407 9.49529 16.9774 10.1281C16.5479 10.7608 16.323 11.5102 16.3333 12.275V13.1083C14.8688 13.1463 13.4177 12.8215 12.1091 12.1628C10.8006 11.5042 9.67522 10.5322 8.83329 9.33329C8.83329 9.33329 5.49996 16.8333 13 20.1666C11.2837 21.3316 9.23926 21.9157 7.16663 21.8333C14.6666 26 23.8333 21.8333 23.8333 12.25C23.8325 12.0178 23.8102 11.7863 23.7666 11.5583C24.6171 10.7195 25.2173 9.66055 25.5 8.49996V8.49996Z" stroke="white" stroke-linecap="round" stroke-linejoin="round"/>
</svg>
