<svg width="33" height="32" viewBox="0 0 33 32" fill="none" xmlns="http://www.w3.org/2000/svg">
<circle cx="16.3333" cy="16" r="16" fill="#0D28A6"/>
<path d="M20.4999 7.66663H12.1665C9.86536 7.66663 7.99988 9.53211 7.99988 11.8333V20.1666C7.99988 22.4678 9.86536 24.3333 12.1665 24.3333H20.4999C22.8011 24.3333 24.6665 22.4678 24.6665 20.1666V11.8333C24.6665 9.53211 22.8011 7.66663 20.4999 7.66663Z" stroke="white" stroke-linecap="round" stroke-linejoin="round"/>
<path d="M19.6666 15.475C19.7695 16.1685 19.651 16.8769 19.3281 17.4992C19.0052 18.1215 18.4942 18.6262 17.868 18.9414C17.2417 19.2566 16.532 19.3663 15.8398 19.2549C15.1476 19.1436 14.5081 18.8167 14.0123 18.321C13.5166 17.8252 13.1897 17.1857 13.0783 16.4935C12.967 15.8013 13.0767 15.0916 13.3919 14.4653C13.7071 13.8391 14.2118 13.3281 14.8341 13.0052C15.4564 12.6823 16.1648 12.5638 16.8583 12.6667C17.5657 12.7716 18.2207 13.1012 18.7264 13.6069C19.2321 14.1126 19.5617 14.7676 19.6666 15.475Z" stroke="white" stroke-linecap="round" stroke-linejoin="round"/>
<path d="M20.9166 11.4166H20.925" stroke="white" stroke-linecap="round" stroke-linejoin="round"/>
</svg>
